<mxfile host="app.diagrams.net" agent="Mozilla/5.0 (Windows NT 10.0; Win64; x64) AppleWebKit/537.36 (KHTML, like Gecko) Chrome/132.0.0.0 Safari/537.36" version="26.0.10">
  <diagram name="Página-1" id="5_bA9364-f_CJoZBhH4R">
    <mxGraphModel dx="954" dy="560" grid="1" gridSize="10" guides="1" tooltips="1" connect="1" arrows="1" fold="1" page="1" pageScale="1" pageWidth="827" pageHeight="1169" math="0" shadow="0">
      <root>
        <mxCell id="0" />
        <mxCell id="1" parent="0" />
        <mxCell id="ZhlMIxXdoGGAUDhmQq8S-18" style="edgeStyle=orthogonalEdgeStyle;rounded=0;orthogonalLoop=1;jettySize=auto;html=1;exitX=0.5;exitY=1;exitDx=0;exitDy=0;exitPerimeter=0;entryX=0.5;entryY=0;entryDx=0;entryDy=0;" edge="1" parent="1" source="ZhlMIxXdoGGAUDhmQq8S-3" target="ZhlMIxXdoGGAUDhmQq8S-5">
          <mxGeometry relative="1" as="geometry" />
        </mxCell>
        <mxCell id="ZhlMIxXdoGGAUDhmQq8S-3" value="INICIO" style="strokeWidth=2;html=1;shape=mxgraph.flowchart.start_1;whiteSpace=wrap;" vertex="1" parent="1">
          <mxGeometry x="350" y="20" width="100" height="60" as="geometry" />
        </mxCell>
        <mxCell id="ZhlMIxXdoGGAUDhmQq8S-4" value="FIM" style="strokeWidth=2;html=1;shape=mxgraph.flowchart.start_1;whiteSpace=wrap;" vertex="1" parent="1">
          <mxGeometry x="330" y="710" width="100" height="60" as="geometry" />
        </mxCell>
        <mxCell id="ZhlMIxXdoGGAUDhmQq8S-19" style="edgeStyle=orthogonalEdgeStyle;rounded=0;orthogonalLoop=1;jettySize=auto;html=1;exitX=0.5;exitY=1;exitDx=0;exitDy=0;entryX=0.5;entryY=0;entryDx=0;entryDy=0;" edge="1" parent="1" source="ZhlMIxXdoGGAUDhmQq8S-5" target="ZhlMIxXdoGGAUDhmQq8S-6">
          <mxGeometry relative="1" as="geometry" />
        </mxCell>
        <mxCell id="ZhlMIxXdoGGAUDhmQq8S-5" value="&lt;span style=&quot;color: rgb(64, 64, 64); font-family: Inter, system-ui, -apple-system, BlinkMacSystemFont, &amp;quot;Segoe UI&amp;quot;, Roboto, &amp;quot;Noto Sans&amp;quot;, Ubuntu, Cantarell, &amp;quot;Helvetica Neue&amp;quot;, Oxygen, &amp;quot;Open Sans&amp;quot;, sans-serif; text-align: left;&quot;&gt;&lt;font&gt;CRESCENTE = Verdadeiro&lt;/font&gt;&lt;/span&gt;" style="rounded=1;whiteSpace=wrap;html=1;absoluteArcSize=1;arcSize=14;strokeWidth=2;" vertex="1" parent="1">
          <mxGeometry x="320" y="120" width="160" height="40" as="geometry" />
        </mxCell>
        <mxCell id="ZhlMIxXdoGGAUDhmQq8S-6" value="&lt;span style=&quot;color: rgb(64, 64, 64); font-family: Inter, system-ui, -apple-system, BlinkMacSystemFont, &amp;quot;Segoe UI&amp;quot;, Roboto, &amp;quot;Noto Sans&amp;quot;, Ubuntu, Cantarell, &amp;quot;Helvetica Neue&amp;quot;, Oxygen, &amp;quot;Open Sans&amp;quot;, sans-serif; font-size: 16.002px; text-align: left;&quot;&gt;vetor V&lt;/span&gt;" style="rounded=1;whiteSpace=wrap;html=1;absoluteArcSize=1;arcSize=14;strokeWidth=2;" vertex="1" parent="1">
          <mxGeometry x="360" y="200" width="80" height="40" as="geometry" />
        </mxCell>
        <mxCell id="ZhlMIxXdoGGAUDhmQq8S-9" style="edgeStyle=orthogonalEdgeStyle;rounded=0;orthogonalLoop=1;jettySize=auto;html=1;exitX=0;exitY=0.5;exitDx=0;exitDy=0;exitPerimeter=0;entryX=1;entryY=0.5;entryDx=0;entryDy=0;" edge="1" parent="1" source="ZhlMIxXdoGGAUDhmQq8S-7" target="ZhlMIxXdoGGAUDhmQq8S-8">
          <mxGeometry relative="1" as="geometry" />
        </mxCell>
        <mxCell id="ZhlMIxXdoGGAUDhmQq8S-10" value="SIM" style="edgeLabel;html=1;align=center;verticalAlign=middle;resizable=0;points=[];" vertex="1" connectable="0" parent="ZhlMIxXdoGGAUDhmQq8S-9">
          <mxGeometry x="-0.1273" y="1" relative="1" as="geometry">
            <mxPoint as="offset" />
          </mxGeometry>
        </mxCell>
        <mxCell id="ZhlMIxXdoGGAUDhmQq8S-21" style="edgeStyle=orthogonalEdgeStyle;rounded=0;orthogonalLoop=1;jettySize=auto;html=1;exitX=1;exitY=0.5;exitDx=0;exitDy=0;exitPerimeter=0;entryX=1;entryY=0.5;entryDx=0;entryDy=0;" edge="1" parent="1" source="ZhlMIxXdoGGAUDhmQq8S-7" target="ZhlMIxXdoGGAUDhmQq8S-6">
          <mxGeometry relative="1" as="geometry">
            <Array as="points">
              <mxPoint x="510" y="330" />
              <mxPoint x="510" y="220" />
            </Array>
          </mxGeometry>
        </mxCell>
        <mxCell id="ZhlMIxXdoGGAUDhmQq8S-22" value="NÃO" style="edgeLabel;html=1;align=center;verticalAlign=middle;resizable=0;points=[];" vertex="1" connectable="0" parent="ZhlMIxXdoGGAUDhmQq8S-21">
          <mxGeometry x="-0.7583" y="2" relative="1" as="geometry">
            <mxPoint as="offset" />
          </mxGeometry>
        </mxCell>
        <mxCell id="ZhlMIxXdoGGAUDhmQq8S-7" value="&lt;span style=&quot;color: rgb(64, 64, 64); font-family: Inter, system-ui, -apple-system, BlinkMacSystemFont, &amp;quot;Segoe UI&amp;quot;, Roboto, &amp;quot;Noto Sans&amp;quot;, Ubuntu, Cantarell, &amp;quot;Helvetica Neue&amp;quot;, Oxygen, &amp;quot;Open Sans&amp;quot;, sans-serif; text-align: left;&quot;&gt;&lt;font&gt;V[i] &amp;gt; V[i+1]?&lt;/font&gt;&lt;/span&gt;" style="strokeWidth=2;html=1;shape=mxgraph.flowchart.decision;whiteSpace=wrap;" vertex="1" parent="1">
          <mxGeometry x="350" y="280" width="100" height="100" as="geometry" />
        </mxCell>
        <mxCell id="ZhlMIxXdoGGAUDhmQq8S-14" style="edgeStyle=orthogonalEdgeStyle;rounded=0;orthogonalLoop=1;jettySize=auto;html=1;exitX=0.5;exitY=0;exitDx=0;exitDy=0;entryX=0;entryY=0.5;entryDx=0;entryDy=0;" edge="1" parent="1" source="ZhlMIxXdoGGAUDhmQq8S-8" target="ZhlMIxXdoGGAUDhmQq8S-6">
          <mxGeometry relative="1" as="geometry" />
        </mxCell>
        <mxCell id="ZhlMIxXdoGGAUDhmQq8S-8" value="&lt;span style=&quot;color: rgb(64, 64, 64); font-family: Inter, system-ui, -apple-system, BlinkMacSystemFont, &amp;quot;Segoe UI&amp;quot;, Roboto, &amp;quot;Noto Sans&amp;quot;, Ubuntu, Cantarell, &amp;quot;Helvetica Neue&amp;quot;, Oxygen, &amp;quot;Open Sans&amp;quot;, sans-serif; text-align: left;&quot;&gt;&lt;font&gt;CRESCENTE = Falso&lt;/font&gt;&lt;/span&gt;" style="rounded=1;whiteSpace=wrap;html=1;absoluteArcSize=1;arcSize=14;strokeWidth=2;" vertex="1" parent="1">
          <mxGeometry x="140" y="305" width="100" height="50" as="geometry" />
        </mxCell>
        <mxCell id="ZhlMIxXdoGGAUDhmQq8S-17" value="&lt;span style=&quot;color: rgb(64, 64, 64); font-family: Inter, system-ui, -apple-system, BlinkMacSystemFont, &amp;quot;Segoe UI&amp;quot;, Roboto, &amp;quot;Noto Sans&amp;quot;, Ubuntu, Cantarell, &amp;quot;Helvetica Neue&amp;quot;, Oxygen, &amp;quot;Open Sans&amp;quot;, sans-serif; text-align: left;&quot;&gt;&lt;font&gt;CRESCENTE = Verdadeiro?&lt;/font&gt;&lt;/span&gt;" style="strokeWidth=2;html=1;shape=mxgraph.flowchart.decision;whiteSpace=wrap;" vertex="1" parent="1">
          <mxGeometry x="350" y="440" width="100" height="100" as="geometry" />
        </mxCell>
        <mxCell id="ZhlMIxXdoGGAUDhmQq8S-20" style="edgeStyle=orthogonalEdgeStyle;rounded=0;orthogonalLoop=1;jettySize=auto;html=1;exitX=0.5;exitY=1;exitDx=0;exitDy=0;entryX=0.5;entryY=0;entryDx=0;entryDy=0;entryPerimeter=0;" edge="1" parent="1" source="ZhlMIxXdoGGAUDhmQq8S-6" target="ZhlMIxXdoGGAUDhmQq8S-7">
          <mxGeometry relative="1" as="geometry" />
        </mxCell>
        <mxCell id="ZhlMIxXdoGGAUDhmQq8S-23" style="edgeStyle=orthogonalEdgeStyle;rounded=0;orthogonalLoop=1;jettySize=auto;html=1;exitX=0.5;exitY=1;exitDx=0;exitDy=0;exitPerimeter=0;entryX=0.5;entryY=0;entryDx=0;entryDy=0;entryPerimeter=0;" edge="1" parent="1" source="ZhlMIxXdoGGAUDhmQq8S-7" target="ZhlMIxXdoGGAUDhmQq8S-17">
          <mxGeometry relative="1" as="geometry" />
        </mxCell>
        <mxCell id="ZhlMIxXdoGGAUDhmQq8S-24" value="NÃO ESTA ORDEM CRESCENTE" style="strokeWidth=2;html=1;shape=mxgraph.flowchart.display;whiteSpace=wrap;" vertex="1" parent="1">
          <mxGeometry x="500" y="585" width="100" height="60" as="geometry" />
        </mxCell>
        <mxCell id="ZhlMIxXdoGGAUDhmQq8S-25" value="ORDEM CRESCENTE" style="strokeWidth=2;html=1;shape=mxgraph.flowchart.display;whiteSpace=wrap;" vertex="1" parent="1">
          <mxGeometry x="160" y="585" width="100" height="60" as="geometry" />
        </mxCell>
        <mxCell id="ZhlMIxXdoGGAUDhmQq8S-26" style="edgeStyle=orthogonalEdgeStyle;rounded=0;orthogonalLoop=1;jettySize=auto;html=1;exitX=0;exitY=0.5;exitDx=0;exitDy=0;exitPerimeter=0;entryX=0.5;entryY=0;entryDx=0;entryDy=0;entryPerimeter=0;" edge="1" parent="1" source="ZhlMIxXdoGGAUDhmQq8S-17" target="ZhlMIxXdoGGAUDhmQq8S-25">
          <mxGeometry relative="1" as="geometry" />
        </mxCell>
        <mxCell id="ZhlMIxXdoGGAUDhmQq8S-28" value="SIM" style="edgeLabel;html=1;align=center;verticalAlign=middle;resizable=0;points=[];" vertex="1" connectable="0" parent="ZhlMIxXdoGGAUDhmQq8S-26">
          <mxGeometry x="-0.4553" relative="1" as="geometry">
            <mxPoint as="offset" />
          </mxGeometry>
        </mxCell>
        <mxCell id="ZhlMIxXdoGGAUDhmQq8S-27" style="edgeStyle=orthogonalEdgeStyle;rounded=0;orthogonalLoop=1;jettySize=auto;html=1;exitX=1;exitY=0.5;exitDx=0;exitDy=0;exitPerimeter=0;entryX=0.66;entryY=-0.004;entryDx=0;entryDy=0;entryPerimeter=0;" edge="1" parent="1" source="ZhlMIxXdoGGAUDhmQq8S-17" target="ZhlMIxXdoGGAUDhmQq8S-24">
          <mxGeometry relative="1" as="geometry" />
        </mxCell>
        <mxCell id="ZhlMIxXdoGGAUDhmQq8S-29" value="NÃO" style="edgeLabel;html=1;align=center;verticalAlign=middle;resizable=0;points=[];" vertex="1" connectable="0" parent="ZhlMIxXdoGGAUDhmQq8S-27">
          <mxGeometry x="-0.5784" relative="1" as="geometry">
            <mxPoint as="offset" />
          </mxGeometry>
        </mxCell>
        <mxCell id="ZhlMIxXdoGGAUDhmQq8S-30" value="" style="strokeWidth=2;html=1;shape=mxgraph.flowchart.start_2;whiteSpace=wrap;" vertex="1" parent="1">
          <mxGeometry x="370" y="600" width="44" height="45" as="geometry" />
        </mxCell>
        <mxCell id="ZhlMIxXdoGGAUDhmQq8S-31" style="edgeStyle=orthogonalEdgeStyle;rounded=0;orthogonalLoop=1;jettySize=auto;html=1;exitX=1;exitY=0.5;exitDx=0;exitDy=0;exitPerimeter=0;entryX=0;entryY=0.333;entryDx=0;entryDy=0;entryPerimeter=0;" edge="1" parent="1" source="ZhlMIxXdoGGAUDhmQq8S-25" target="ZhlMIxXdoGGAUDhmQq8S-30">
          <mxGeometry relative="1" as="geometry" />
        </mxCell>
        <mxCell id="ZhlMIxXdoGGAUDhmQq8S-32" style="edgeStyle=orthogonalEdgeStyle;rounded=0;orthogonalLoop=1;jettySize=auto;html=1;exitX=0;exitY=0.5;exitDx=0;exitDy=0;exitPerimeter=0;entryX=0.977;entryY=0.35;entryDx=0;entryDy=0;entryPerimeter=0;" edge="1" parent="1" source="ZhlMIxXdoGGAUDhmQq8S-24" target="ZhlMIxXdoGGAUDhmQq8S-30">
          <mxGeometry relative="1" as="geometry" />
        </mxCell>
        <mxCell id="ZhlMIxXdoGGAUDhmQq8S-33" style="edgeStyle=orthogonalEdgeStyle;rounded=0;orthogonalLoop=1;jettySize=auto;html=1;exitX=0.5;exitY=1;exitDx=0;exitDy=0;exitPerimeter=0;entryX=0.62;entryY=-0.037;entryDx=0;entryDy=0;entryPerimeter=0;" edge="1" parent="1" source="ZhlMIxXdoGGAUDhmQq8S-30" target="ZhlMIxXdoGGAUDhmQq8S-4">
          <mxGeometry relative="1" as="geometry" />
        </mxCell>
      </root>
    </mxGraphModel>
  </diagram>
</mxfile>
